<svg xmlns="http://www.w3.org/2000/svg" xmlns:xlink="http://www.w3.org/1999/xlink"><symbol id="sprite-arrow" viewBox="0 0 9 16"><title>arrow</title><path d="M.757 15.84c.2 0 .39-.07.54-.22l7.7-7.7-7.7-7.7a.78.78 0 00-1.08 0 .78.78 0 000 1.08l6.62 6.62-6.62 6.62a.78.78 0 000 1.08c.15.15.35.22.54.22z"/></symbol><use xlink:href="#sprite-arrow" width="9" height="16"/><view id="sprite-arrow-fragment" viewBox="0 0 9 16"/><symbol id="sprite-external-link-line" viewBox="0 0 16 16"><title>external-link-line</title><path d="M6.667 4v1.333H3.333v7.334h7.334V9.333H12v4a.667.667 0 01-.667.667H2.667A.667.667 0 012 13.333V4.667C2 4.298 2.298 4 2.667 4h4zM14 2v5.333h-1.333V4.275L7.47 9.471l-.94-.941 5.194-5.196H8.667V2H14z" fill="#000091" fill-rule="evenodd"/></symbol><use xlink:href="#sprite-external-link-line" y="16" width="16" height="16"/><view id="sprite-external-link-line-fragment" viewBox="0 16 16 16"/></svg>