<svg id="SvgjsSvg1008" xmlns="http://www.w3.org/2000/svg" version="1.1" xmlns:xlink="http://www.w3.org/1999/xlink" xmlns:svgjs="http://svgjs.com/svgjs" width="14" height="14"><defs id="SvgjsDefs1009"></defs><path id="SvgjsPath1010" d="M1182.46 39.27C1182.25 39.470000000000006 1181.93 39.470000000000006 1181.73 39.27L1176.6100000000001 34.150000000000006C1176.41 33.95 1176.0800000000002 33.95 1175.88 34.150000000000006L1175.15 34.88C1174.95 35.080000000000005 1174.95 35.410000000000004 1175.15 35.61L1180.27 40.73C1180.47 40.93 1180.47 41.25 1180.27 41.459999999999994L1175.33 46.38999999999999C1175.1299999999999 46.589999999999996 1175.1299999999999 46.919999999999995 1175.33 47.11999999999999L1176.06 47.84999999999999C1176.27 48.04999999999999 1176.59 48.04999999999999 1176.8 47.84999999999999L1181.73 42.91999999999999C1181.93 42.719999999999985 1182.25 42.719999999999985 1182.46 42.91999999999999L1187.2 47.66999999999999C1187.41 47.86999999999999 1187.73 47.86999999999999 1187.94 47.66999999999999L1188.67 46.93999999999999C1188.8700000000001 46.72999999999999 1188.8700000000001 46.40999999999999 1188.67 46.19999999999999L1183.92 41.45999999999999C1183.72 41.249999999999986 1183.72 40.929999999999986 1183.92 40.72999999999999L1188.8500000000001 35.79999999999999C1189.0500000000002 35.58999999999999 1189.0500000000002 35.26999999999999 1188.8500000000001 35.05999999999999L1188.1200000000001 34.32999999999999C1187.92 34.12999999999999 1187.5900000000001 34.12999999999999 1187.39 34.32999999999999Z " fill="#ffffff" fill-opacity="1" transform="matrix(1,0,0,1,-1175,-34)"></path></svg>